<svg width="64" height="64" viewBox="0 0 64 64" xmlns="http://www.w3.org/2000/svg">
  <defs>
    <linearGradient id="bgGrad" x1="0%" y1="0%" x2="100%" y2="100%">
      <stop offset="0%" stop-color="#7c5cfc"/>
      <stop offset="100%" stop-color="#5b3ff0"/>
    </linearGradient>
    <linearGradient id="pageGrad" x1="0%" y1="0%" x2="100%" y2="100%">
      <stop offset="0%" stop-color="#ffffff"/>
      <stop offset="100%" stop-color="#f0f0f5"/>
    </linearGradient>
  </defs>

  <!-- Background -->
  <rect width="64" height="64" rx="16" fill="url(#bgGrad)"/>

  <!-- Folded page -->
  <path d="M20 14 H36 L44 22 V50 A2 2 0 0 1 42 52 H20 A2 2 0 0 1 18 50 V16 A2 2 0 0 1 20 14 Z" fill="url(#pageGrad)"/>
  <path d="M36 14 L44 22 H38 A2 2 0 0 1 36 20 V14 Z" fill="#d8d9e8"/>

  <!-- Text lines representing markdown -->
  <rect x="23" y="27" width="14" height="2.4" rx="1.2" fill="#7c5cfc"/>
  <rect x="23" y="33" width="17" height="2.4" rx="1.2" fill="#c7c9d9"/>
  <rect x="23" y="39" width="11" height="2.4" rx="1.2" fill="#c7c9d9"/>

  <!-- Mint accent dot -->
  <circle cx="47" cy="46" r="7" fill="#22d3b8"/>
  <path d="M43.5 46 L46 48.5 L50.5 43.5" stroke="white" stroke-width="1.8" stroke-linecap="round" stroke-linejoin="round" fill="none"/>
</svg>
